<svg width="354" height="30" viewBox="0 0 354 30" fill="none" xmlns="http://www.w3.org/2000/svg">
<path d="M9.03846 5.12623C9.56567 5.29046 9.97864 5.56705 10.2774 5.95602C10.5761 6.33634 10.7255 6.80742 10.7255 7.36925C10.7255 8.16447 10.4092 8.77816 9.77655 9.21034C9.15269 9.63388 8.23887 9.84565 7.0351 9.84565H2.26392V0.769843H6.77149C7.89619 0.769843 8.75729 0.981611 9.35479 1.40515C9.96107 1.82869 10.2642 2.40349 10.2642 3.12955C10.2642 3.57038 10.1544 3.96366 9.93471 4.30941C9.72383 4.65515 9.42508 4.92743 9.03846 5.12623ZM4.38591 2.35163V4.49092H6.50789C7.0351 4.49092 7.43489 4.40017 7.70728 4.21865C7.97967 4.03713 8.11586 3.76918 8.11586 3.41479C8.11586 3.0604 7.97967 2.79677 7.70728 2.6239C7.43489 2.44238 7.0351 2.35163 6.50789 2.35163H4.38591ZM6.87694 8.26387C7.43928 8.26387 7.86105 8.17311 8.14222 7.99159C8.43218 7.81008 8.57716 7.52916 8.57716 7.14884C8.57716 6.39684 8.01042 6.02085 6.87694 6.02085H4.38591V8.26387H6.87694Z" fill="#0191C6"/>
<path d="M19.2747 7.90083H14.9912L14.1741 9.84565H11.9862L16.0983 0.769843H18.2071L22.3325 9.84565H20.0919L19.2747 7.90083ZM18.6026 6.30609L17.1396 2.83135L15.6766 6.30609H18.6026Z" fill="#0191C6"/>
<path d="M26.0397 10.0012C25.4158 10.0012 24.8403 9.88887 24.3131 9.66413C23.7947 9.43076 23.3685 9.1023 23.0347 8.67876L24.2209 7.27849C24.7217 7.94405 25.2928 8.27683 25.9343 8.27683C26.8041 8.27683 27.2391 7.7755 27.2391 6.77284V2.45535H23.9968V0.769843H29.3611V6.65615C29.3611 7.77118 29.0799 8.60961 28.5176 9.17145C27.9552 9.72464 27.1293 10.0012 26.0397 10.0012Z" fill="#0191C6"/>
<path d="M38.2097 7.90083H33.9262L33.1091 9.84565H30.9212L35.0333 0.769843H37.1422L41.2675 9.84565H39.0269L38.2097 7.90083ZM37.5376 6.30609L36.0746 2.83135L34.6116 6.30609H37.5376Z" fill="#0191C6"/>
<path d="M44.9747 10.0012C44.3509 10.0012 43.7753 9.88887 43.2481 9.66413C42.7297 9.43076 42.3036 9.1023 41.9697 8.67876L43.1559 7.27849C43.6567 7.94405 44.2278 8.27683 44.8693 8.27683C45.7392 8.27683 46.1741 7.7755 46.1741 6.77284V2.45535H42.9318V0.769843H48.2961V6.65615C48.2961 7.77118 48.0149 8.60961 47.4526 9.17145C46.8902 9.72464 46.0643 10.0012 44.9747 10.0012Z" fill="#0191C6"/>
<path d="M55.8511 0.769843H57.9863V9.84565H55.8511V0.769843Z" fill="#0191C6"/>
<path d="M69.4941 0.769843V9.84565H67.7412L63.1414 4.33534V9.84565H61.0325V0.769843H62.7987L67.3853 6.28015V0.769843H69.4941Z" fill="#0191C6"/>
<path d="M75.5651 10.0012C74.8358 10.0012 74.1285 9.90616 73.4431 9.716C72.7665 9.51719 72.2218 9.26221 71.8088 8.95103L72.5337 7.36925C72.9291 7.65449 73.3992 7.88355 73.944 8.05642C74.4887 8.22929 75.0335 8.31573 75.5783 8.31573C76.1846 8.31573 76.6327 8.22929 76.9226 8.05642C77.2126 7.8749 77.3576 7.6372 77.3576 7.34332C77.3576 7.12723 77.2697 6.95004 77.094 6.81174C76.927 6.6648 76.7074 6.54811 76.435 6.46167C76.1714 6.37523 75.8111 6.28015 75.3542 6.17643C74.6513 6.0122 74.0757 5.84797 73.6276 5.68374C73.1795 5.51952 72.7929 5.25588 72.4678 4.89285C72.1515 4.52982 71.9933 4.04578 71.9933 3.44072C71.9933 2.91346 72.1383 2.43806 72.4282 2.01453C72.7182 1.58234 73.1531 1.24092 73.7331 0.990255C74.3218 0.73959 75.0379 0.614258 75.8814 0.614258C76.4701 0.614258 77.0457 0.683407 77.608 0.821705C78.1704 0.960003 78.6624 1.15881 79.0842 1.41811L78.4252 3.01286C77.5729 2.53746 76.7206 2.29976 75.8682 2.29976C75.2707 2.29976 74.827 2.39484 74.5371 2.585C74.2559 2.77516 74.1153 3.02583 74.1153 3.337C74.1153 3.64817 74.2778 3.88155 74.603 4.03713C74.9369 4.18407 75.4421 4.33102 76.1187 4.47796C76.8216 4.64219 77.3971 4.80642 77.8452 4.97064C78.2934 5.13487 78.6756 5.39418 78.9919 5.74857C79.317 6.10296 79.4796 6.58268 79.4796 7.18774C79.4796 7.70635 79.3302 8.18175 79.0314 8.61393C78.7415 9.03747 78.3022 9.37457 77.7134 9.62524C77.1247 9.8759 76.4086 10.0012 75.5651 10.0012Z" fill="#0191C6"/>
<path d="M83.5776 2.48128H80.6253V0.769843H88.6651V2.48128H85.7128V9.84565H83.5776V2.48128Z" fill="#0191C6"/>
<path d="M90.6707 0.769843H92.8058V9.84565H90.6707V0.769843Z" fill="#0191C6"/>
<path d="M97.7632 2.48128H94.8109V0.769843H102.851V2.48128H99.8984V9.84565H97.7632V2.48128Z" fill="#0191C6"/>
<path d="M108.801 10.0012C107.483 10.0012 106.455 9.64253 105.717 8.9251C104.987 8.20768 104.623 7.18341 104.623 5.85229V0.769843H106.758V5.7745C106.758 7.3995 107.443 8.212 108.814 8.212C109.482 8.212 109.991 8.01752 110.343 7.62856C110.694 7.23095 110.87 6.61293 110.87 5.7745V0.769843H112.979V5.85229C112.979 7.18341 112.61 8.20768 111.872 8.9251C111.142 9.64253 110.119 10.0012 108.801 10.0012Z" fill="#0191C6"/>
<path d="M117.702 2.48128H114.75V0.769843H122.79V2.48128H119.837V9.84565H117.702V2.48128Z" fill="#0191C6"/>
<path d="M131.939 8.16014V9.84565H124.795V0.769843H131.767V2.45535H126.917V4.4261H131.201V6.05974H126.917V8.16014H131.939Z" fill="#0191C6"/>
<path d="M143.552 10.0012C142.594 10.0012 141.729 9.79811 140.955 9.39186C140.191 8.98561 139.589 8.4281 139.15 7.71932C138.719 7.0019 138.504 6.19804 138.504 5.30775C138.504 4.41745 138.719 3.61792 139.15 2.90914C139.589 2.19172 140.191 1.62988 140.955 1.22363C141.729 0.817383 142.594 0.614258 143.552 0.614258C144.509 0.614258 145.371 0.817383 146.135 1.22363C146.899 1.62988 147.501 2.19172 147.941 2.90914C148.38 3.61792 148.6 4.41745 148.6 5.30775C148.6 6.19804 148.38 7.0019 147.941 7.71932C147.501 8.4281 146.899 8.98561 146.135 9.39186C145.371 9.79811 144.509 10.0012 143.552 10.0012ZM143.552 8.212C144.097 8.212 144.589 8.09099 145.028 7.84897C145.467 7.59831 145.81 7.25256 146.056 6.81174C146.311 6.37091 146.438 5.86958 146.438 5.30775C146.438 4.74591 146.311 4.24458 146.056 3.80376C145.81 3.36293 145.467 3.02151 145.028 2.77949C144.589 2.52882 144.097 2.40349 143.552 2.40349C143.007 2.40349 142.515 2.52882 142.076 2.77949C141.636 3.02151 141.289 3.36293 141.034 3.80376C140.788 4.24458 140.665 4.74591 140.665 5.30775C140.665 5.86958 140.788 6.37091 141.034 6.81174C141.289 7.25256 141.636 7.59831 142.076 7.84897C142.515 8.09099 143.007 8.212 143.552 8.212Z" fill="#0191C6"/>
<path d="M153.196 2.45535V4.85396H157.467V6.53946H153.196V9.84565H151.061V0.769843H158.033V2.45535H153.196Z" fill="#0191C6"/>
<path d="M166.836 2.48128H163.884V0.769843H171.923V2.48128H168.971V9.84565H166.836V2.48128Z" fill="#0191C6"/>
<path d="M181.073 8.16014V9.84565H173.929V0.769843H180.901V2.45535H176.051V4.4261H180.334V6.05974H176.051V8.16014H181.073Z" fill="#0191C6"/>
<path d="M188.018 10.0012C187.078 10.0012 186.225 9.80243 185.461 9.40482C184.705 8.99857 184.108 8.44106 183.668 7.73228C183.238 7.01486 183.022 6.20668 183.022 5.30775C183.022 4.40881 183.238 3.60495 183.668 2.89617C184.108 2.17875 184.705 1.62124 185.461 1.22363C186.225 0.817383 187.082 0.614258 188.031 0.614258C188.831 0.614258 189.551 0.752556 190.192 1.02915C190.843 1.30575 191.387 1.70335 191.827 2.22197L190.456 3.46665C189.832 2.75788 189.059 2.40349 188.136 2.40349C187.565 2.40349 187.056 2.52882 186.607 2.77949C186.159 3.02151 185.808 3.36293 185.553 3.80376C185.307 4.24458 185.184 4.74591 185.184 5.30775C185.184 5.86958 185.307 6.37091 185.553 6.81174C185.808 7.25256 186.159 7.59831 186.607 7.84897C187.056 8.09099 187.565 8.212 188.136 8.212C189.059 8.212 189.832 7.85329 190.456 7.13587L191.827 8.38056C191.387 8.90782 190.843 9.30975 190.192 9.58634C189.542 9.86294 188.817 10.0012 188.018 10.0012Z" fill="#0191C6"/>
<path d="M202.587 0.769843V9.84565H200.452V6.12457H196.261V9.84565H194.125V0.769843H196.261V4.3483H200.452V0.769843H202.587Z" fill="#0191C6"/>
<path d="M214.088 0.769843V9.84565H212.335L207.735 4.33534V9.84565H205.626V0.769843H207.393L211.979 6.28015V0.769843H214.088Z" fill="#0191C6"/>
<path d="M221.596 10.0012C220.638 10.0012 219.772 9.79811 218.999 9.39186C218.235 8.98561 217.633 8.4281 217.194 7.71932C216.763 7.0019 216.548 6.19804 216.548 5.30775C216.548 4.41745 216.763 3.61792 217.194 2.90914C217.633 2.19172 218.235 1.62988 218.999 1.22363C219.772 0.817383 220.638 0.614258 221.596 0.614258C222.553 0.614258 223.415 0.817383 224.179 1.22363C224.943 1.62988 225.545 2.19172 225.985 2.90914C226.424 3.61792 226.644 4.41745 226.644 5.30775C226.644 6.19804 226.424 7.0019 225.985 7.71932C225.545 8.4281 224.943 8.98561 224.179 9.39186C223.415 9.79811 222.553 10.0012 221.596 10.0012ZM221.596 8.212C222.14 8.212 222.633 8.09099 223.072 7.84897C223.511 7.59831 223.854 7.25256 224.1 6.81174C224.355 6.37091 224.482 5.86958 224.482 5.30775C224.482 4.74591 224.355 4.24458 224.1 3.80376C223.854 3.36293 223.511 3.02151 223.072 2.77949C222.633 2.52882 222.14 2.40349 221.596 2.40349C221.051 2.40349 220.559 2.52882 220.12 2.77949C219.68 3.02151 219.333 3.36293 219.078 3.80376C218.832 4.24458 218.709 4.74591 218.709 5.30775C218.709 5.86958 218.832 6.37091 219.078 6.81174C219.333 7.25256 219.68 7.59831 220.12 7.84897C220.559 8.09099 221.051 8.212 221.596 8.212Z" fill="#0191C6"/>
<path d="M229.105 0.769843H231.24V8.13421H235.866V9.84565H229.105V0.769843Z" fill="#0191C6"/>
<path d="M242.23 10.0012C241.272 10.0012 240.406 9.79811 239.633 9.39186C238.869 8.98561 238.267 8.4281 237.828 7.71932C237.397 7.0019 237.182 6.19804 237.182 5.30775C237.182 4.41745 237.397 3.61792 237.828 2.90914C238.267 2.19172 238.869 1.62988 239.633 1.22363C240.406 0.817383 241.272 0.614258 242.23 0.614258C243.187 0.614258 244.049 0.817383 244.813 1.22363C245.577 1.62988 246.179 2.19172 246.619 2.90914C247.058 3.61792 247.278 4.41745 247.278 5.30775C247.278 6.19804 247.058 7.0019 246.619 7.71932C246.179 8.4281 245.577 8.98561 244.813 9.39186C244.049 9.79811 243.187 10.0012 242.23 10.0012ZM242.23 8.212C242.774 8.212 243.267 8.09099 243.706 7.84897C244.145 7.59831 244.488 7.25256 244.734 6.81174C244.989 6.37091 245.116 5.86958 245.116 5.30775C245.116 4.74591 244.989 4.24458 244.734 3.80376C244.488 3.36293 244.145 3.02151 243.706 2.77949C243.267 2.52882 242.774 2.40349 242.23 2.40349C241.685 2.40349 241.193 2.52882 240.754 2.77949C240.314 3.02151 239.967 3.36293 239.712 3.80376C239.466 4.24458 239.343 4.74591 239.343 5.30775C239.343 5.86958 239.466 6.37091 239.712 6.81174C239.967 7.25256 240.314 7.59831 240.754 7.84897C241.193 8.09099 241.685 8.212 242.23 8.212Z" fill="#0191C6"/>
<path d="M255.973 5.16513H257.924V8.84731C257.423 9.21899 256.843 9.50423 256.184 9.70303C255.525 9.90183 254.862 10.0012 254.194 10.0012C253.236 10.0012 252.375 9.80243 251.611 9.40482C250.846 8.99857 250.244 8.44106 249.805 7.73228C249.374 7.01486 249.159 6.20668 249.159 5.30775C249.159 4.40881 249.374 3.60495 249.805 2.89617C250.244 2.17875 250.851 1.62124 251.624 1.22363C252.397 0.817383 253.267 0.614258 254.233 0.614258C255.042 0.614258 255.775 0.748234 256.434 1.01619C257.093 1.28414 257.647 1.6731 258.095 2.18308L256.724 3.42776C256.065 2.74491 255.27 2.40349 254.339 2.40349C253.75 2.40349 253.227 2.5245 252.77 2.76652C252.314 3.00854 251.958 3.34997 251.703 3.79079C251.448 4.23162 251.321 4.73727 251.321 5.30775C251.321 5.86958 251.448 6.37091 251.703 6.81174C251.958 7.25256 252.309 7.59831 252.757 7.84897C253.214 8.09099 253.733 8.212 254.312 8.212C254.928 8.212 255.481 8.08235 255.973 7.82304V5.16513Z" fill="#0191C6"/>
<path d="M265.192 6.63022V9.84565H263.057V6.60429L259.485 0.769843H261.752L264.217 4.80209L266.682 0.769843H268.777L265.192 6.63022Z" fill="#0191C6"/>
<path d="M275.763 7.43408C276.132 7.43408 276.435 7.55077 276.672 7.78415C276.909 8.00888 277.028 8.30709 277.028 8.67876C277.028 8.85163 277.006 9.02451 276.962 9.19738C276.918 9.37025 276.821 9.62956 276.672 9.9753L275.921 11.8423H274.616L275.196 9.78082C274.976 9.69439 274.8 9.55609 274.669 9.36593C274.546 9.16713 274.484 8.93807 274.484 8.67876C274.484 8.30709 274.603 8.00888 274.84 7.78415C275.086 7.55077 275.394 7.43408 275.763 7.43408Z" fill="#0191C6"/>
<path d="M297.957 0.769843L294.939 9.84565H292.645L290.616 3.70003L288.52 9.84565H286.24L283.208 0.769843H285.423L287.505 7.14884L289.68 0.769843H291.657L293.766 7.2007L295.914 0.769843H297.957Z" fill="#0191C6"/>
<path d="M305.773 7.90083H301.489L300.672 9.84565H298.484L302.596 0.769843H304.705L308.83 9.84565H306.59L305.773 7.90083ZM305.1 6.30609L303.637 2.83135L302.174 6.30609H305.1Z" fill="#0191C6"/>
<path d="M316.523 9.84565L314.743 7.31739H314.638H312.779V9.84565H310.644V0.769843H314.638C315.455 0.769843 316.162 0.903819 316.76 1.17177C317.366 1.43972 317.832 1.82004 318.157 2.31273C318.482 2.80542 318.645 3.38886 318.645 4.06306C318.645 4.73727 318.478 5.32071 318.144 5.8134C317.819 6.29744 317.353 6.66912 316.747 6.92843L318.816 9.84565H316.523ZM316.483 4.06306C316.483 3.55309 316.316 3.16413 315.982 2.89617C315.648 2.61958 315.161 2.48128 314.519 2.48128H312.779V5.64485H314.519C315.161 5.64485 315.648 5.50655 315.982 5.22995C316.316 4.95336 316.483 4.56439 316.483 4.06306Z" fill="#0191C6"/>
<path d="M321.193 0.769843H325.384C326.386 0.769843 327.269 0.960002 328.033 1.34032C328.807 1.712 329.404 2.23926 329.826 2.92211C330.256 3.60495 330.472 4.40017 330.472 5.30775C330.472 6.21533 330.256 7.01054 329.826 7.69339C329.404 8.37623 328.807 8.90782 328.033 9.28814C327.269 9.65981 326.386 9.84565 325.384 9.84565H321.193V0.769843ZM325.279 8.12125C326.201 8.12125 326.935 7.87058 327.48 7.36925C328.033 6.85928 328.31 6.17211 328.31 5.30775C328.31 4.44338 328.033 3.76054 327.48 3.25921C326.935 2.74923 326.201 2.49425 325.279 2.49425H323.328V8.12125H325.279Z" fill="#0191C6"/>
<path d="M341.4 0.769843V9.84565H339.265V6.12457H335.074V9.84565H332.939V0.769843H335.074V4.3483H339.265V0.769843H341.4Z" fill="#0191C6"/>
<path d="M350.516 7.90083H346.232L345.415 9.84565H343.227L347.339 0.769843H349.448L353.574 9.84565H351.333L350.516 7.90083ZM349.844 6.30609L348.381 2.83135L346.918 6.30609H349.844Z" fill="#0191C6"/>
<path d="M8.30952 20.5669V21.4499H7.08084V27.9917H6.05526V26.2359C5.88602 26.5168 5.64232 26.7442 5.32415 26.9181C5.00598 27.0854 4.63365 27.169 4.20717 27.169C3.74684 27.169 3.32713 27.0686 2.94804 26.868C2.57571 26.6673 2.28124 26.3864 2.06461 26.0251C1.84798 25.6573 1.73967 25.2358 1.73967 24.7609C1.73967 24.286 1.8446 23.8679 2.05446 23.5067C2.27108 23.1455 2.56556 22.8646 2.93788 22.6639C3.31021 22.4633 3.72653 22.3629 4.18686 22.3629C4.60658 22.3629 4.97552 22.4499 5.29368 22.6238C5.61185 22.791 5.86571 23.0151 6.05526 23.296V21.4499H0.835938V20.5669H8.30952ZM4.4001 23.0653C3.94654 23.0653 3.56406 23.199 3.25267 23.4666L5.86233 25.6338C6.0248 25.3596 6.10603 25.0619 6.10603 24.7409C6.10603 24.4532 6.03833 24.1823 5.90294 23.9281C5.77432 23.6673 5.58139 23.4599 5.32415 23.3061C5.0669 23.1455 4.75889 23.0653 4.4001 23.0653ZM2.67387 24.7609C2.67387 25.0954 2.75172 25.3863 2.90742 25.6338C3.06312 25.8813 3.27297 26.072 3.53699 26.2058C3.801 26.3395 4.09209 26.4064 4.41026 26.4064C4.87736 26.4064 5.25984 26.2693 5.5577 25.995L2.92773 23.8278C2.75849 24.0887 2.67387 24.3997 2.67387 24.7609Z" fill="#6BB4FC"/>
<path d="M17.5749 21.4499H16.336V27.9917H15.2698V23.9181H13.5639V24.6807C13.5639 25.3027 13.3777 25.8078 13.0054 26.1957C12.6331 26.577 12.1288 26.7676 11.4924 26.7676C10.8425 26.7676 10.3348 26.577 9.96927 26.1957C9.61049 25.8144 9.43109 25.3094 9.43109 24.6807V23.0151H10.5075V24.6606C10.5075 25.0218 10.5955 25.3094 10.7715 25.5235C10.9475 25.7375 11.1912 25.8445 11.5026 25.8445C11.8207 25.8445 12.0712 25.7375 12.254 25.5235C12.4368 25.3094 12.5282 25.0218 12.5282 24.6606V23.0151H15.2698V21.4499H8.4969V20.5669H17.5749V21.4499Z" fill="#6BB4FC"/>
<path d="M18.9833 27.9917V21.4499H17.7445V20.5669H21.2883V21.4499H20.0495V27.9917H18.9833Z" fill="#6BB4FC"/>
<path d="M30.5367 21.4499H29.2979V27.9917H28.2317V23.9181H26.5257V24.6807C26.5257 25.3027 26.3396 25.8078 25.9672 26.1957C25.5949 26.577 25.0906 26.7676 24.4543 26.7676C23.8044 26.7676 23.2967 26.577 22.9311 26.1957C22.5723 25.8144 22.3929 25.3094 22.3929 24.6807V23.0151H23.4693V24.6606C23.4693 25.0218 23.5573 25.3094 23.7333 25.5235C23.9093 25.7375 24.153 25.8445 24.4644 25.8445C24.7826 25.8445 25.033 25.7375 25.2158 25.5235C25.3986 25.3094 25.49 25.0218 25.49 24.6606V23.0151H28.2317V21.4499H21.4587V20.5669H30.5367V21.4499Z" fill="#6BB4FC"/>
<path d="M41.2035 21.4499H39.9647V27.9917H38.9086V25.3328C38.8341 25.4399 38.7461 25.5335 38.6446 25.6138L36.3091 28.1522H35.1414L37.1722 26.0753C36.4817 26.0552 35.9571 25.8245 35.5983 25.383C35.2395 24.9415 35.0601 24.3496 35.0601 23.6071V21.4499H34.0041V20.5669H41.2035V21.4499ZM38.9086 21.4499H36.1263V23.6071C36.1263 24.1154 36.2414 24.5134 36.4716 24.8011C36.7017 25.0887 37.0538 25.2325 37.5276 25.2325C37.9609 25.2325 38.2994 25.0954 38.5431 24.8211C38.7868 24.5402 38.9086 24.1957 38.9086 23.7877V21.4499Z" fill="#6BB4FC"/>
<path d="M44.9213 20.5669V21.4499H43.6825V27.9917H42.6163V21.4499H41.3775V20.5669H42.6874C42.288 20.2726 41.9867 20.0686 41.7836 19.9549C41.5805 19.8412 41.3842 19.7709 41.1947 19.7442C40.9984 19.7107 40.7039 19.694 40.3113 19.694H39.8442V19.0218H40.2909C40.67 19.0218 40.9577 19.0351 41.1541 19.0619C41.3504 19.0887 41.5501 19.1555 41.7532 19.2626C41.9563 19.3629 42.2101 19.5335 42.5147 19.7743C42.2304 19.2659 41.9766 18.8947 41.7532 18.6606C41.5298 18.4264 41.3199 18.2826 41.1236 18.2291C40.9273 18.1689 40.6633 18.1388 40.3316 18.1388H39.8442V17.4565H40.3113C40.8325 17.4565 41.2319 17.5134 41.5095 17.6271C41.7802 17.7408 42.068 18.0084 42.3726 18.4298C42.684 18.8512 43.1003 19.5636 43.6216 20.5669H44.9213Z" fill="#6BB4FC"/>
<path d="M52.7278 21.4499H51.4889V27.9917H50.443V26.4365C50.0572 27.2191 49.2854 27.6104 48.1279 27.6104C47.478 27.6104 46.95 27.47 46.5438 27.189C46.1376 26.9014 45.9345 26.5034 45.9345 25.995C45.9345 25.5937 46.0496 25.2894 46.2798 25.082C46.5167 24.8679 46.7909 24.7375 47.1023 24.6907V24.6606C46.7841 24.6138 46.5066 24.4967 46.2696 24.3094C46.0395 24.1154 45.9244 23.8412 45.9244 23.4867C45.9244 23.0586 46.0801 22.7509 46.3915 22.5636C46.7096 22.3763 47.0854 22.2827 47.5186 22.2827H47.9146V21.4499H45.2542V20.5669H52.7278V21.4499ZM50.443 21.4499H48.93V22.694H48.1583C48.0703 22.694 48.006 22.6974 47.9654 22.7041L47.9146 22.7944V22.7041C47.6506 22.7308 47.4306 22.8077 47.2546 22.9348C47.0854 23.0552 47.0007 23.2358 47.0007 23.4766C47.0007 23.7375 47.109 23.9348 47.3257 24.0686C47.5423 24.1957 47.8232 24.2593 48.1685 24.2593H48.7879V25.0619H48.1482C47.7962 25.0619 47.5152 25.1288 47.3054 25.2626C47.1023 25.3964 47.0007 25.6071 47.0007 25.8947C47.0007 26.189 47.1226 26.4165 47.3663 26.577C47.6168 26.7375 47.9485 26.8178 48.3614 26.8178C48.9842 26.8178 49.4852 26.6472 49.8642 26.3061C50.2501 25.9649 50.443 25.4399 50.443 24.7308V21.4499Z" fill="#6BB4FC"/>
<path d="M56.4453 20.5669V21.4499H55.2065V27.9917H54.1402V21.4499H52.9014V20.5669H54.1707C53.8458 20.0653 53.5784 19.704 53.3685 19.4833C53.1654 19.2626 52.9657 19.1188 52.7694 19.0519C52.5663 18.985 52.2922 18.9515 51.9469 18.9515H51.49V18.0887H51.9266C52.4411 18.0953 52.8473 18.1489 53.1451 18.2492C53.4498 18.3495 53.7544 18.5736 54.059 18.9214C54.3704 19.2626 54.7461 19.8111 55.1861 20.5669H56.4453Z" fill="#6BB4FC"/>
<path d="M62.2409 17.8579C63.7099 17.8579 64.8201 18.102 65.5715 18.5903C66.3297 19.0719 66.7088 19.7676 66.7088 20.6773V20.8479H65.6629V20.7074C65.6629 19.383 64.5189 18.7208 62.2308 18.7208C61.1341 18.7208 60.3116 18.8612 59.7633 19.1422C59.2217 19.4231 58.9408 19.898 58.9205 20.5669H60.1695V21.4499H58.9306V27.9917H57.8644V21.4499H56.6256V20.5669H57.8644C57.8915 19.6505 58.2672 18.9716 58.9916 18.5301C59.7159 18.082 60.799 17.8579 62.2409 17.8579Z" fill="#6BB4FC"/>
<path d="M68.5953 20.5669V21.4499H67.3565V27.9917H66.3004V21.4499H64.6453V24.0285C64.6453 24.5837 64.4964 25.0352 64.1985 25.383C63.9074 25.7308 63.4606 25.9047 62.8581 25.9047C62.2692 25.9047 61.8156 25.7442 61.4975 25.4231C61.1861 25.0954 61.0303 24.6506 61.0303 24.0887C61.0303 23.9482 61.0337 23.8445 61.0405 23.7776H62.0762V24.0887C62.0762 24.3496 62.1338 24.5669 62.2489 24.7409C62.3707 24.9148 62.5637 25.0017 62.8277 25.0017C63.1052 25.0017 63.2981 24.9148 63.4065 24.7409C63.5215 24.5603 63.5791 24.3362 63.5791 24.0686V21.4499H60.3399V20.5669H68.5953Z" fill="#6BB4FC"/>
<path d="M74.6029 21.4499V23.4064C74.7518 23.1188 74.965 22.8914 75.2426 22.7241C75.5269 22.5502 75.8688 22.4633 76.2682 22.4633C76.6811 22.4633 77.0467 22.5636 77.3648 22.7643C77.683 22.9582 77.9301 23.2291 78.1061 23.577C78.2821 23.9181 78.3701 24.3094 78.3701 24.7509C78.3701 25.2258 78.2787 25.6372 78.096 25.985C77.9132 26.3262 77.6627 26.5904 77.3445 26.7777C77.0264 26.9583 76.6642 27.0486 76.258 27.0486C76.0143 27.0486 75.7977 27.0252 75.6081 26.9783V26.1455C75.7097 26.1723 75.8349 26.1857 75.9839 26.1857C76.363 26.1857 76.6743 26.0619 76.9181 25.8144C77.1685 25.5603 77.2938 25.2124 77.2938 24.771C77.2938 24.3562 77.1651 24.0184 76.9079 23.7576C76.6574 23.4967 76.3393 23.3663 75.9534 23.3663C75.5066 23.3663 75.1681 23.5134 74.938 23.8077C74.7146 24.1021 74.6029 24.4532 74.6029 24.8613V27.9917H73.5773V26.1556C73.4216 26.4432 73.1948 26.674 72.8969 26.8479C72.5991 27.0218 72.2403 27.1088 71.8206 27.1088C71.4009 27.1088 71.0285 27.0118 70.7036 26.8178C70.3787 26.6238 70.1248 26.3529 69.942 26.0051C69.766 25.6506 69.678 25.2392 69.678 24.771C69.678 24.3094 69.7694 23.9047 69.9522 23.5569C70.135 23.2091 70.3922 22.9415 70.7239 22.7542C71.0556 22.5602 71.4347 22.4633 71.8612 22.4633C72.2674 22.4633 72.616 22.5469 72.9071 22.7141C73.1982 22.8813 73.4216 23.1054 73.5773 23.3863V21.4499H68.7743V20.5669H79.2637V21.4499H74.6029ZM72.1658 26.2258C72.4705 26.2258 72.7277 26.1556 72.9376 26.0151C73.1542 25.8746 73.3133 25.694 73.4148 25.4733C73.5231 25.2526 73.5773 25.0251 73.5773 24.791C73.5773 24.4098 73.4554 24.0786 73.2117 23.7977C72.968 23.5101 72.6194 23.3663 72.1658 23.3663C71.7664 23.3663 71.4313 23.4967 71.1606 23.7576C70.8898 24.0118 70.7544 24.3529 70.7544 24.781C70.7544 25.2225 70.8864 25.5736 71.1504 25.8345C71.4144 26.0954 71.7529 26.2258 72.1658 26.2258Z" fill="#6BB4FC"/>
<path d="M82.9937 20.5669V21.4499H81.7548V27.9917H80.6886V21.4499H79.4498V20.5669H80.7191V20.4766C80.7191 19.9348 80.5295 19.5 80.1505 19.1723C79.7714 18.8378 79.0538 18.6706 77.9977 18.6706C76.9485 18.6706 76.2309 18.8378 75.845 19.1723C75.4592 19.5067 75.2662 19.9415 75.2662 20.4766V20.8077H74.2406V20.4064C74.2406 19.6037 74.5351 18.9683 75.1241 18.5C75.713 18.0251 76.6709 17.7876 77.9977 17.7876C79.3517 17.7876 80.3163 18.0218 80.8917 18.49C81.4671 18.9582 81.7548 19.597 81.7548 20.4064V20.5669H82.9937Z" fill="#6BB4FC"/>
<path d="M95.2961 21.4499H94.0471V27.9917H92.9911V24.6305H88.5333V25.9549C88.5333 26.3228 88.6179 26.6205 88.7872 26.8479C88.9632 27.0686 89.2204 27.179 89.5589 27.179C89.8771 27.179 90.1242 27.0787 90.3002 26.878C90.483 26.6706 90.5743 26.3964 90.5743 26.0552V25.9348H91.5999C91.6067 25.9817 91.6101 26.0385 91.6101 26.1054C91.6101 26.7141 91.4273 27.1957 91.0617 27.5502C90.703 27.9048 90.2088 28.082 89.5792 28.082C88.909 28.082 88.3912 27.8813 88.0256 27.48C87.6668 27.0787 87.4874 26.5536 87.4874 25.9047V23.8679H88.3708C88.926 23.8679 89.3389 23.7275 89.6097 23.4465C89.8872 23.1656 90.026 22.781 90.026 22.2927V21.4499H86.4618V20.5669H95.2961V21.4499ZM92.9911 21.4499H91.0821V22.2927C91.0821 22.888 90.9196 23.3796 90.5947 23.7676H92.9911V21.4499Z" fill="#6BB4FC"/>
<path d="M94.852 19.0117C94.852 19.199 94.7877 19.3562 94.6591 19.4833C94.5305 19.6104 94.3714 19.6739 94.1818 19.6739C93.9923 19.6739 93.8332 19.6104 93.7046 19.4833C93.5692 19.3562 93.5015 19.199 93.5015 19.0117C93.5015 18.8244 93.5692 18.6673 93.7046 18.5402C93.8332 18.4131 93.9923 18.3495 94.1818 18.3495C94.3714 18.3495 94.5305 18.4131 94.6591 18.5402C94.7877 18.6673 94.852 18.8244 94.852 19.0117Z" fill="#6BB4FC"/>
<path d="M109.667 20.5669V21.4499H108.428V27.9917H107.362V25.8144C107.206 26.1556 106.932 26.4466 106.54 26.6874C106.147 26.9282 105.663 27.0486 105.088 27.0486C104.282 27.0486 103.629 26.8312 103.128 26.3964C102.634 25.9549 102.356 25.3529 102.295 24.5904H98.2029V25.9549C98.2029 26.3228 98.2876 26.6205 98.4568 26.8479C98.6328 27.0686 98.89 27.179 99.2285 27.179C99.5467 27.179 99.7938 27.0787 99.9698 26.878C100.153 26.6706 100.244 26.3964 100.244 26.0552V25.9348H101.27C101.276 25.9817 101.28 26.0385 101.28 26.1054C101.28 26.7141 101.097 27.1957 100.731 27.5502C100.373 27.9048 99.8784 28.082 99.2488 28.082C98.5786 28.082 98.0608 27.8813 97.6952 27.48C97.3364 27.0787 97.157 26.5536 97.157 25.9047V23.8679H98.0405C98.5956 23.8679 99.0085 23.7275 99.2793 23.4465C99.5568 23.1656 99.6956 22.781 99.6956 22.2927V21.4499H96.1315V20.5669H103.727C103.93 20.5067 104.15 20.4766 104.387 20.4766C104.773 20.4766 105.111 20.5569 105.402 20.7174C105.693 20.878 105.92 21.1054 106.083 21.3997C106.245 21.6873 106.326 22.0184 106.326 22.393C106.326 23.0753 106.089 23.597 105.616 23.9582C105.148 24.3195 104.509 24.5001 103.696 24.5001H103.321C103.334 25.0084 103.503 25.4131 103.828 25.7141C104.153 26.0151 104.627 26.1656 105.25 26.1656C105.636 26.1656 105.988 26.0853 106.306 25.9248C106.631 25.7576 106.888 25.5168 107.078 25.2024C107.267 24.8813 107.362 24.5067 107.362 24.0786V20.5669H109.667ZM100.752 21.4499V22.2927C100.752 22.8746 100.599 23.3529 100.295 23.7275H103.3C104.654 23.7275 105.331 23.2726 105.331 22.3629C105.331 22.082 105.243 21.8479 105.067 21.6606C104.898 21.4733 104.668 21.3796 104.377 21.3796C104.065 21.3796 103.818 21.4733 103.635 21.6606C103.459 21.8412 103.371 22.0887 103.371 22.4031C103.371 22.5301 103.388 22.6673 103.422 22.8144H102.458C102.431 22.6873 102.417 22.5402 102.417 22.373C102.417 22.0251 102.485 21.7174 102.62 21.4499H100.752Z" fill="#6BB4FC"/>
<path d="M111.08 27.9917V21.4499H109.841V20.5669H113.385V21.4499H112.146V27.9917H111.08Z" fill="#6BB4FC"/>
<path d="M122.156 21.4499H120.918V27.9917H119.851V23.8378H118.084C118.389 24.1857 118.541 24.6037 118.541 25.092C118.541 25.4733 118.453 25.8078 118.277 26.0954C118.101 26.3763 117.858 26.5904 117.546 26.7375C117.242 26.8847 116.9 26.9583 116.521 26.9583C116.128 26.9583 115.769 26.878 115.444 26.7175C115.119 26.5502 114.862 26.3161 114.673 26.0151C114.49 25.7141 114.398 25.3629 114.398 24.9616C114.398 24.5402 114.493 24.179 114.683 23.878C114.879 23.577 115.143 23.3495 115.475 23.1957C115.813 23.0352 116.192 22.9549 116.612 22.9549H119.851V21.4499H113.556V20.5669H122.156V21.4499ZM116.541 26.0653C116.879 26.0653 117.154 25.9616 117.364 25.7542C117.58 25.5469 117.688 25.2793 117.688 24.9516C117.688 24.6305 117.58 24.3663 117.364 24.1589C117.147 23.9449 116.873 23.8378 116.541 23.8378C116.196 23.8378 115.911 23.9449 115.688 24.1589C115.471 24.3663 115.363 24.6338 115.363 24.9616C115.363 25.2894 115.471 25.5569 115.688 25.7643C115.905 25.9649 116.189 26.0653 116.541 26.0653Z" fill="#6BB4FC"/>
<path d="M124.602 26.6171L123.373 29.3864H122.622L123.343 26.6171H124.602Z" fill="#6BB4FC"/>
<path d="M135.877 20.5669V21.4499H134.638V27.9917H133.602V26.1756C133.426 26.47 133.183 26.7041 132.871 26.878C132.567 27.0452 132.201 27.1288 131.775 27.1288C131.314 27.1288 130.908 27.0285 130.556 26.8278C130.211 26.6272 129.943 26.3462 129.754 25.985C129.564 25.6238 129.47 25.2091 129.47 24.7409C129.47 24.2927 129.564 23.8947 129.754 23.5469C129.95 23.1924 130.221 22.9181 130.566 22.7241C130.918 22.5235 131.321 22.4231 131.775 22.4231C132.194 22.4231 132.56 22.5067 132.871 22.674C133.183 22.8412 133.426 23.072 133.602 23.3663V21.4499H128.566V20.5669H135.877ZM132.049 26.286C132.387 26.286 132.672 26.2124 132.902 26.0653C133.139 25.9181 133.315 25.7308 133.43 25.5034C133.545 25.276 133.602 25.0385 133.602 24.791V24.781C133.602 24.5268 133.545 24.286 133.43 24.0586C133.315 23.8245 133.139 23.6372 132.902 23.4967C132.672 23.3495 132.387 23.276 132.049 23.276C131.609 23.276 131.243 23.4131 130.952 23.6873C130.661 23.9616 130.515 24.3228 130.515 24.771C130.515 25.2325 130.658 25.6004 130.942 25.8746C131.233 26.1489 131.602 26.286 132.049 26.286Z" fill="#6BB4FC"/>
<path d="M143.867 21.4499H142.649V27.9917H141.582V25.9549C141.373 26.3027 141.075 26.577 140.689 26.7777C140.31 26.9716 139.87 27.0686 139.369 27.0686C138.719 27.0686 138.184 26.9148 137.764 26.6071C137.345 26.2994 137.135 25.8646 137.135 25.3027C137.135 24.8947 137.257 24.5636 137.5 24.3094C137.744 24.0552 138.028 23.9014 138.353 23.8479V23.8178C137.988 23.7308 137.68 23.5469 137.429 23.2659C137.186 22.985 137.064 22.6171 137.064 22.1623C137.064 21.6606 137.23 21.2559 137.561 20.9482C137.893 20.6338 138.323 20.4766 138.851 20.4766C139.386 20.4766 139.805 20.6271 140.11 20.9281C140.421 21.2291 140.577 21.6204 140.577 22.1021C140.577 22.189 140.57 22.3061 140.557 22.4532H139.755L139.765 22.2225C139.765 21.975 139.687 21.7709 139.531 21.6104C139.375 21.4432 139.159 21.3596 138.881 21.3596C138.604 21.3596 138.384 21.4465 138.221 21.6204C138.059 21.7944 137.978 22.0117 137.978 22.2726C137.978 22.6271 138.113 22.9014 138.384 23.0954C138.655 23.2893 139.01 23.3863 139.45 23.3863H140.039V24.2392H139.491C139.084 24.2392 138.77 24.3261 138.546 24.5001C138.33 24.6673 138.221 24.8981 138.221 25.1924C138.221 25.5201 138.35 25.771 138.607 25.9449C138.864 26.1121 139.203 26.1957 139.623 26.1957C140.002 26.1957 140.337 26.1154 140.628 25.9549C140.926 25.7877 141.159 25.5569 141.329 25.2626C141.498 24.9616 141.582 24.6205 141.582 24.2392V20.5669H143.867V21.4499Z" fill="#6BB4FC"/>
<path d="M145.236 27.9917V21.4499H143.997V20.5669H147.541V21.4499H146.302V27.9917H145.236Z" fill="#6BB4FC"/>
<path d="M145.964 20.7475V19.8545C145.964 19.2592 146.11 18.7776 146.401 18.4097C146.685 18.0351 147.136 17.8478 147.752 17.8478C148.314 17.8478 148.747 18.0117 149.051 18.3395C149.356 18.6673 149.498 19.102 149.478 19.6438H148.544C148.557 19.3696 148.493 19.1489 148.351 18.9816C148.209 18.8144 148.016 18.7308 147.772 18.7308C147.23 18.7308 146.96 19.102 146.96 19.8445V20.7475H145.964Z" fill="#6BB4FC"/>
<path d="M150.646 26.6171L149.417 29.3864H148.666L149.387 26.6171H150.646Z" fill="#6BB4FC"/>
<path d="M163.241 21.4499H162.002V27.9917H160.936V24.2693H159.24V24.9616C159.24 25.6439 159.071 26.1723 158.732 26.5469C158.401 26.9148 157.92 27.0987 157.29 27.0987C156.695 27.0987 156.217 26.9282 155.859 26.587C155.5 26.2459 155.32 25.7977 155.32 25.2425C155.32 24.6606 155.51 24.2091 155.889 23.888C156.275 23.5669 156.769 23.4064 157.372 23.4064H158.245V21.4499H154.61V20.5669H163.241V21.4499ZM160.936 21.4499H159.24V23.4064H160.936V21.4499ZM158.245 24.2693H157.402C157.077 24.2693 156.813 24.3562 156.61 24.5302C156.407 24.7041 156.305 24.9415 156.305 25.2425C156.305 25.5369 156.397 25.771 156.58 25.9449C156.762 26.1188 156.996 26.2058 157.28 26.2058C157.585 26.2058 157.822 26.1021 157.991 25.8947C158.16 25.6807 158.245 25.3863 158.245 25.0118V24.2693Z" fill="#6BB4FC"/>
<path d="M166.63 23.2459C166.345 23.2459 166.115 23.3027 165.939 23.4164C165.763 23.5302 165.675 23.7108 165.675 23.9582C165.675 24.1322 165.726 24.2793 165.827 24.3997C165.929 24.5201 166.068 24.6104 166.244 24.6706C166.433 24.6372 166.616 24.6205 166.792 24.6205C167.469 24.6205 167.997 24.7843 168.376 25.1121C168.762 25.4332 168.992 25.8412 169.067 26.3362H168.051C167.99 26.1021 167.848 25.8981 167.625 25.7241C167.408 25.5502 167.124 25.4633 166.772 25.4633C166.359 25.4633 166.031 25.5937 165.787 25.8546C165.543 26.1088 165.421 26.4332 165.421 26.8278C165.421 27.2292 165.54 27.5569 165.777 27.8111C166.02 28.0586 166.352 28.1823 166.772 28.1823C167.11 28.1823 167.391 28.0987 167.615 27.9315C167.838 27.7643 167.984 27.5636 168.051 27.3295H169.067C169.019 27.6506 168.897 27.9415 168.701 28.2024C168.505 28.4633 168.241 28.6706 167.909 28.8245C167.584 28.9783 167.205 29.0553 166.772 29.0553C166.278 29.0553 165.848 28.9583 165.482 28.7643C165.123 28.5703 164.849 28.3061 164.66 27.9716C164.47 27.6305 164.375 27.2425 164.375 26.8078C164.375 26.3997 164.463 26.0385 164.639 25.7241C164.822 25.4031 165.079 25.1489 165.411 24.9616C165.167 24.8412 164.974 24.6807 164.832 24.48C164.69 24.2793 164.619 24.0385 164.619 23.7576C164.619 23.3495 164.768 23.0352 165.066 22.8144C165.364 22.5937 165.763 22.4833 166.264 22.4833H167.442V21.4499H163.421V20.5669H169.849V21.4499H168.457V23.2459H166.63Z" fill="#6BB4FC"/>
<path d="M171.27 27.9917V21.4499H170.031V20.5669H173.575V21.4499H172.336V27.9917H171.27Z" fill="#6BB4FC"/>
<path d="M175.816 24.7108V25.9649C175.816 26.3328 175.901 26.6272 176.07 26.8479C176.24 27.0686 176.49 27.179 176.822 27.179C177.126 27.179 177.367 27.0787 177.543 26.878C177.725 26.6706 177.817 26.3964 177.817 26.0552V25.8345H178.842V26.0251C178.842 26.6539 178.663 27.1556 178.304 27.5302C177.952 27.8981 177.465 28.082 176.842 28.082C176.172 28.082 175.657 27.8847 175.299 27.49C174.947 27.0887 174.771 26.5636 174.771 25.9148V23.8479H175.827C176.93 23.8479 177.482 23.3261 177.482 22.2827V21.4499H173.745V20.5669H179.655V21.4499H178.538V22.2827C178.538 23.0586 178.348 23.6572 177.969 24.0786C177.59 24.5001 177.001 24.7108 176.202 24.7108H175.816Z" fill="#6BB4FC"/>
<path d="M181.068 27.9917V21.4499H179.829V20.5669H183.373V21.4499H182.134V27.9917H181.068Z" fill="#6BB4FC"/>
<path d="M191.332 23.3863C190.763 23.3863 190.299 23.5335 189.941 23.8278C189.582 24.1154 189.403 24.5368 189.403 25.092C189.403 25.567 189.562 25.9583 189.88 26.266C190.198 26.567 190.608 26.7175 191.108 26.7175C191.623 26.7175 192.039 26.5603 192.357 26.2459C192.676 25.9248 192.835 25.5134 192.835 25.0118H193.85C193.85 25.6272 193.691 26.1556 193.373 26.5971C193.061 27.0318 192.632 27.3328 192.083 27.5001L193.444 28.9951H192.337L191.129 27.6305H191.068L189.859 28.9951H188.763L190.124 27.49C189.67 27.3496 189.291 27.1221 188.986 26.8078C188.688 26.4934 188.492 26.1154 188.397 25.674C187.991 26.0218 187.497 26.1957 186.915 26.1957C186.17 26.1957 185.598 25.9616 185.199 25.4934C184.799 25.0251 184.6 24.3964 184.6 23.6071V21.4499H183.543V20.5669H194.51V21.4499H192.469V23.3863H191.332ZM188.661 23.7676C188.891 23.3596 189.233 23.0452 189.687 22.8245C190.14 22.6037 190.668 22.4934 191.271 22.4934H191.423V21.4499H185.635L188.661 23.7676ZM187.098 25.3027C187.45 25.3027 187.737 25.2158 187.961 25.0419C188.191 24.868 188.34 24.6572 188.407 24.4098L185.625 22.2425V23.6372C185.625 24.1656 185.747 24.577 185.991 24.8713C186.234 25.1589 186.603 25.3027 187.098 25.3027Z" fill="#6BB4FC"/>
<path d="M196.95 26.6171L195.721 29.3864H194.97L195.691 26.6171H196.95Z" fill="#6BB4FC"/>
<path d="M209.646 20.5669V21.4499H208.397V27.9917H207.331V24.2693H205.788V24.9616C205.788 25.6439 205.619 26.1723 205.28 26.5469C204.948 26.9148 204.471 27.0987 203.848 27.0987C203.253 27.0987 202.772 26.9282 202.406 26.587C202.048 26.2459 201.868 25.7977 201.868 25.2425C201.868 24.6606 202.061 24.2091 202.447 23.888C202.833 23.5669 203.327 23.4064 203.93 23.4064H204.793V22.5134C204.793 22.1589 204.725 21.8813 204.59 21.6806C204.454 21.48 204.248 21.3796 203.97 21.3796C203.726 21.3796 203.527 21.4633 203.371 21.6305C203.222 21.7977 203.148 22.0251 203.148 22.3128C203.148 22.4398 203.161 22.5602 203.188 22.674H202.122C202.095 22.5134 202.081 22.3796 202.081 22.2726C202.081 21.7308 202.244 21.296 202.569 20.9683C202.894 20.6405 203.347 20.4766 203.93 20.4766C204.579 20.4766 205.05 20.674 205.341 21.0686C205.639 21.4633 205.788 22.0051 205.788 22.694V23.4064H207.331V20.5669H209.646ZM204.793 24.2693H203.96C203.628 24.2693 203.361 24.3562 203.158 24.5302C202.962 24.7041 202.863 24.9415 202.863 25.2425C202.863 25.5369 202.955 25.771 203.138 25.9449C203.32 26.1188 203.554 26.2058 203.838 26.2058C204.143 26.2058 204.376 26.1021 204.539 25.8947C204.708 25.6807 204.793 25.3863 204.793 25.0118V24.2693Z" fill="#6BB4FC"/>
<path d="M211.053 27.9917V21.4499H209.814V20.5669H213.358V21.4499H212.119V27.9917H211.053Z" fill="#6BB4FC"/>
<path d="M215.6 24.7108V25.9649C215.6 26.3328 215.685 26.6272 215.854 26.8479C216.023 27.0686 216.274 27.179 216.605 27.179C216.91 27.179 217.15 27.0787 217.326 26.878C217.509 26.6706 217.6 26.3964 217.6 26.0552V25.8345H218.626V26.0251C218.626 26.6539 218.447 27.1556 218.088 27.5302C217.736 27.8981 217.248 28.082 216.626 28.082C215.955 28.082 215.441 27.8847 215.082 27.49C214.73 27.0887 214.554 26.5636 214.554 25.9148V23.8479H215.61C216.714 23.8479 217.265 23.3261 217.265 22.2827V21.4499H213.528V20.5669H219.438V21.4499H218.321V22.2827C218.321 23.0586 218.132 23.6572 217.753 24.0786C217.374 24.5001 216.785 24.7108 215.986 24.7108H215.6Z" fill="#6BB4FC"/>
<path d="M227.188 21.4499H225.949V27.9917H224.883V23.9181H223.461C222.879 23.9181 222.422 24.0552 222.09 24.3295C221.759 24.6037 221.593 25.0017 221.593 25.5235C221.593 26.0318 221.738 26.4298 222.029 26.7175C222.327 26.9984 222.754 27.1389 223.309 27.1389H223.522V27.9716H223.157C222.358 27.9716 221.718 27.7643 221.237 27.3496C220.757 26.9282 220.516 26.3128 220.516 25.5034C220.516 24.674 220.78 24.0519 221.309 23.6372C221.837 23.2225 222.537 23.0151 223.41 23.0151H224.883V21.4499H219.613V20.5669H227.188V21.4499Z" fill="#6BB4FC"/>
</svg>
